<svg width="100" height="100" fill="none" xmlns="http://www.w3.org/2000/svg"><rect opacity=".1" width="100" height="100" rx="30" fill="#2C6D97"/><g clip-path="url(#clip0)"><path d="M49.949 46.2c-8.046.028-14.506 6.67-14.506 14.716v19.353a.73.73 0 001.147.599l12.03-8.382a2.414 2.414 0 012.76 0l12.03 8.382a.73.73 0 001.147-.6v-19.51c0-8.057-6.545-14.585-14.608-14.558z" fill="url(#paint0_linear)"/><path d="M64.557 80.269V60.757c0-8.056-6.546-14.585-14.609-14.557-6.915.024-12.659 4.934-14.136 11.421l.04.18 14.255 14.256c.446.02.889.162 1.273.43l12.03 8.38a.73.73 0 001.147-.598z" fill="url(#paint1_linear)"/><path d="M41.636 48.88v28.472l-3.101 2.16v-27.65a14.703 14.703 0 013.098-2.98l.003-.002z" fill="url(#paint2_linear)"/><path d="M61.465 51.787v27.725l-3.1-2.16V48.843a14.638 14.638 0 013.1 2.944z" fill="url(#paint3_linear)"/><path d="M50 46.2v25.852c.483 0 .965.145 1.38.434l12.03 8.382a.73.73 0 001.147-.6v-19.51C64.557 52.717 58.04 46.2 50 46.2z" fill="url(#paint4_linear)"/><path d="M63.41 78.508l-12.03-8.382a2.414 2.414 0 00-2.76 0l-12.03 8.382a.73.73 0 01-1.148-.599v2.36a.73.73 0 001.147.599l12.03-8.382a2.414 2.414 0 012.76 0l12.03 8.382a.73.73 0 001.148-.6V77.91a.73.73 0 01-1.148.599z" fill="url(#paint5_linear)"/><path d="M41.636 48.88v14.706l-3.101-3.1v-8.624l.188-.238a12.903 12.903 0 01.375-.447 13.53 13.53 0 01.487-.528c.116-.123.236-.241.357-.359.119-.114.238-.228.362-.338l.067-.06a12.99 12.99 0 01.662-.558c.048-.04.096-.076.144-.113.1-.077.198-.151.298-.224.052-.04.105-.077.158-.115l.003-.002z" fill="url(#paint6_linear)"/><path d="M61.465 51.787v27.725l-3.1-2.16V48.843a14.638 14.638 0 013.1 2.944z" fill="url(#paint7_linear)"/><path d="M71.742 38.443C71.742 27.705 62.008 19 50.001 19c-12.008 0-21.742 8.705-21.742 19.443v4.597c0 10.738 9.734 19.443 21.742 19.443 12.007 0 21.741-8.705 21.741-19.443v-4.597z" fill="url(#paint8_linear)"/><path d="M71.742 38.443C71.742 27.705 62.008 19 50.001 19c-12.008 0-21.742 8.705-21.742 19.443v4.597c0 10.738 9.734 19.443 21.742 19.443 12.007 0 21.741-8.705 21.741-19.443v-4.597z" fill="url(#paint9_linear)"/><path d="M67.906 27.415C63.984 22.332 57.427 19 50 19c-7.428 0-13.985 3.332-17.907 8.415v26.653c3.922 5.083 10.479 8.415 17.907 8.415 7.427 0 13.984-3.332 17.906-8.415V27.415z" fill="url(#paint10_linear)"/><path d="M37.248 58.787c3.582 2.325 7.988 3.696 12.752 3.696s9.17-1.372 12.752-3.696V22.696C59.17 20.37 54.764 19 50 19s-9.17 1.372-12.752 3.696v36.091z" fill="url(#paint11_linear)"/><path d="M45.06 61.979c1.587.33 3.24.504 4.94.504 1.699 0 3.352-.175 4.94-.504V19.504A24.274 24.274 0 0050 19c-1.7 0-3.353.175-4.94.504V61.98z" fill="url(#paint12_linear)"/><path d="M50 57.886c12.008 0 21.742-8.705 21.742-19.443C71.742 27.705 62.008 19 50.001 19c-12.008 0-21.742 8.705-21.742 19.443 0 10.738 9.734 19.443 21.742 19.443z" fill="url(#paint13_linear)"/><path d="M50 55.718c10.669 0 19.317-7.734 19.317-17.275 0-9.54-8.648-17.274-19.317-17.274-10.668 0-19.316 7.734-19.316 17.274 0 9.54 8.648 17.275 19.316 17.275z" fill="url(#paint14_linear)"/><path d="M50 54.082c9.657 0 17.486-7.002 17.486-15.639S59.657 22.804 50 22.804c-9.658 0-17.487 7.002-17.487 15.64 0 8.636 7.83 15.638 17.487 15.638z" fill="url(#paint15_linear)"/><path d="M71.377 42.004l-7.89-7.89a.966.966 0 00-.743-.543l-3.672-.534-8.185-8.164a.975.975 0 00-.886-.556.975.975 0 00-.886.556l-3.647 7.504-8.21 1.194a.97.97 0 00-.797.674.972.972 0 00.257 1.015l5.818 5.802.04.049-1.344 7.843a.972.972 0 00.38.955l7.973 7.973c.138.002.277.005.416.005 10.647 0 19.506-6.846 21.376-15.883z" fill="url(#paint16_linear)"/><path d="M63.54 34.245a.97.97 0 00-.796-.674l-8.21-1.194-3.647-7.504a.975.975 0 00-.886-.556.975.975 0 00-.886.556l-3.647 7.504-8.21 1.194a.97.97 0 00-.797.674.972.972 0 00.257 1.014l5.898 5.622-1.384 8.073a.972.972 0 00.38.955.974.974 0 001.03.093l7.359-3.668 7.359 3.668a.974.974 0 001.03-.093.972.972 0 00.38-.955l-1.384-8.073 5.898-5.622a.972.972 0 00.256-1.014zM50 38.539l-.011.003.005-.005.007-.01.007.01.005.005-.012-.003z" fill="url(#paint17_linear)"/><path d="M49.992 38.537l-.005.005-7.373 2.339-5.898-5.622a.973.973 0 01-.256-1.014l13.532 4.292z" fill="url(#paint18_linear)"/><path d="M49.988 38.542L41.61 49.91a.972.972 0 01-.38-.955l1.384-8.073 7.373-2.339z" fill="url(#paint19_linear)"/><path d="M58.39 49.908a.974.974 0 01-1.031.094L50 46.334v-7.795l.012.003 8.377 11.366z" fill="url(#paint20_linear)"/><path d="M50 38.539v7.795l-7.36 3.668a.974.974 0 01-1.03-.093l8.377-11.367.013-.003z" fill="url(#paint21_linear)"/><path d="M58.39 49.908l-8.378-11.366 7.373 2.339 1.384 8.073a.971.971 0 01-.38.954z" fill="url(#paint22_linear)"/><path d="M50 38.527l-.007.01-13.533-4.292a.97.97 0 01.797-.673l8.21-1.194L50 38.527z" fill="url(#paint23_linear)"/><path d="M54.533 32.377L50 38.527v-14.21c.353 0 .707.186.886.556l3.647 7.504z" fill="url(#paint24_linear)"/><path d="M50 24.317v14.21l-4.533-6.15 3.647-7.504a.975.975 0 01.886-.556z" fill="url(#paint25_linear)"/><path d="M63.54 34.245l-13.533 4.292-.007-.01 4.533-6.15 8.21 1.194a.97.97 0 01.797.674z" fill="url(#paint26_linear)"/><path d="M63.283 35.26l-5.897 5.621-7.373-2.339-.005-.005 13.532-4.292a.973.973 0 01-.257 1.015z" fill="url(#paint27_linear)"/><path d="M61.246 34.747a.806.806 0 00-.662-.56l-6.82-.99-3.028-6.235a.81.81 0 00-.736-.461.81.81 0 00-.737.461l-3.029 6.234-6.82.992a.806.806 0 00-.661.56.808.808 0 00.213.842l4.899 4.67-1.15 6.705a.807.807 0 00.316.793.81.81 0 00.856.078l6.112-3.047 6.113 3.047c.3.15.624.096.856-.078a.807.807 0 00.315-.793l-1.149-6.706 4.899-4.669a.808.808 0 00.213-.843zm-11.247 3.567l-.01.003.005-.004.005-.01.006.01.005.004-.01-.003z" fill="url(#paint28_linear)"/><path d="M50 52.424c8.633 0 15.633-6.26 15.633-13.98 0-7.722-7-13.982-15.634-13.982s-15.633 6.26-15.633 13.981c0 7.722 7 13.981 15.633 13.981z" fill="url(#paint29_linear)"/></g><defs><linearGradient id="paint0_linear" x1="41.851" y1="57.563" x2="64.545" y2="87.083" gradientUnits="userSpaceOnUse"><stop stop-color="#4A98F7"/><stop offset="1" stop-color="#0469BC"/></linearGradient><linearGradient id="paint1_linear" x1="51.075" y1="71.483" x2="50.06" y2="57.185" gradientUnits="userSpaceOnUse"><stop stop-color="#0469BC" stop-opacity="0"/><stop offset="1" stop-color="#0469BC"/></linearGradient><linearGradient id="paint2_linear" x1="35.725" y1="58.524" x2="48.814" y2="75.551" gradientUnits="userSpaceOnUse"><stop stop-color="#F9F7FC"/><stop offset="1" stop-color="#F0DDFC"/></linearGradient><linearGradient id="paint3_linear" x1="54.606" y1="57.664" x2="69.796" y2="77.422" gradientUnits="userSpaceOnUse"><stop stop-color="#F9F7FC"/><stop offset="1" stop-color="#F0DDFC"/></linearGradient><linearGradient id="paint4_linear" x1="56.028" y1="61.788" x2="31.494" y2="43.958" gradientUnits="userSpaceOnUse"><stop stop-color="#18CFFC" stop-opacity="0"/><stop offset="1" stop-color="#65E1DC"/></linearGradient><linearGradient id="paint5_linear" x1="49.999" y1="78.114" x2="49.999" y2="57.34" gradientUnits="userSpaceOnUse"><stop stop-color="#0469BC" stop-opacity="0"/><stop offset="1" stop-color="#0469BC"/></linearGradient><linearGradient id="paint6_linear" x1="40.085" y1="71.689" x2="40.085" y2="56.367" gradientUnits="userSpaceOnUse"><stop stop-color="#F0DDFC" stop-opacity="0"/><stop offset=".289" stop-color="#C8B7E0" stop-opacity=".289"/><stop offset=".592" stop-color="#A595C8" stop-opacity=".592"/><stop offset=".84" stop-color="#8F81B8" stop-opacity=".84"/><stop offset="1" stop-color="#8779B3"/></linearGradient><linearGradient id="paint7_linear" x1="59.915" y1="71.688" x2="59.915" y2="56.367" gradientUnits="userSpaceOnUse"><stop stop-color="#F0DDFC" stop-opacity="0"/><stop offset=".289" stop-color="#C8B7E0" stop-opacity=".289"/><stop offset=".592" stop-color="#A595C8" stop-opacity=".592"/><stop offset=".84" stop-color="#8F81B8" stop-opacity=".84"/><stop offset="1" stop-color="#8779B3"/></linearGradient><linearGradient id="paint8_linear" x1="28.259" y1="40.742" x2="71.742" y2="40.742" gradientUnits="userSpaceOnUse"><stop stop-color="#FFDA45"/><stop offset="1" stop-color="#FFA425"/></linearGradient><linearGradient id="paint9_linear" x1="59.752" y1="43.903" x2="75.269" y2="48.933" gradientUnits="userSpaceOnUse"><stop stop-color="#FFDA45" stop-opacity="0"/><stop offset=".519" stop-color="#D9874F" stop-opacity=".519"/><stop offset="1" stop-color="#B53759"/></linearGradient><linearGradient id="paint10_linear" x1="47.93" y1="36.761" x2="65.8" y2="71.127" gradientUnits="userSpaceOnUse"><stop stop-color="#FFDA45" stop-opacity="0"/><stop offset=".519" stop-color="#D9874F" stop-opacity=".519"/><stop offset="1" stop-color="#B53759"/></linearGradient><linearGradient id="paint11_linear" x1="49.331" y1="47.526" x2="47.221" y2="68.935" gradientUnits="userSpaceOnUse"><stop stop-color="#FFDA45" stop-opacity="0"/><stop offset=".519" stop-color="#D9874F" stop-opacity=".519"/><stop offset="1" stop-color="#B53759"/></linearGradient><linearGradient id="paint12_linear" x1="45.694" y1="48.617" x2="39.169" y2="60.551" gradientUnits="userSpaceOnUse"><stop stop-color="#FFDA45" stop-opacity="0"/><stop offset=".519" stop-color="#D9874F" stop-opacity=".519"/><stop offset="1" stop-color="#B53759"/></linearGradient><linearGradient id="paint13_linear" x1="28.259" y1="38.443" x2="71.742" y2="38.443" gradientUnits="userSpaceOnUse"><stop stop-color="#FFDA45"/><stop offset="1" stop-color="#FFA425"/></linearGradient><linearGradient id="paint14_linear" x1="69.317" y1="38.443" x2="30.684" y2="38.443" gradientUnits="userSpaceOnUse"><stop stop-color="#FFDA45"/><stop offset="1" stop-color="#FFA425"/></linearGradient><linearGradient id="paint15_linear" x1="32.512" y1="38.443" x2="67.486" y2="38.443" gradientUnits="userSpaceOnUse"><stop stop-color="#FFDA45"/><stop offset="1" stop-color="#FFA425"/></linearGradient><linearGradient id="paint16_linear" x1="73.228" y1="60.278" x2="29.498" y2="22.724" gradientUnits="userSpaceOnUse"><stop stop-color="#FFDA45" stop-opacity="0"/><stop offset=".519" stop-color="#D9874F" stop-opacity=".519"/><stop offset="1" stop-color="#B53759"/></linearGradient><linearGradient id="paint17_linear" x1="44.719" y1="33.872" x2="65.307" y2="55.202" gradientUnits="userSpaceOnUse"><stop stop-color="#FFDA45"/><stop offset="1" stop-color="#FCB37E"/></linearGradient><linearGradient id="paint18_linear" x1="41.565" y1="34.991" x2="54.37" y2="48.65" gradientUnits="userSpaceOnUse"><stop stop-color="#FCB37E" stop-opacity="0"/><stop offset="1" stop-color="#FF7044"/></linearGradient><linearGradient id="paint19_linear" x1="41.216" y1="44.225" x2="49.988" y2="44.225" gradientUnits="userSpaceOnUse"><stop stop-color="#FFDA45"/><stop offset="1" stop-color="#FCB37E"/></linearGradient><linearGradient id="paint20_linear" x1="47.907" y1="40.073" x2="62.894" y2="56.957" gradientUnits="userSpaceOnUse"><stop stop-color="#FCB37E" stop-opacity="0"/><stop offset="1" stop-color="#FF7044"/></linearGradient><linearGradient id="paint21_linear" x1="39.324" y1="44.557" x2="58.579" y2="43.893" gradientUnits="userSpaceOnUse"><stop stop-color="#FCB37E" stop-opacity="0"/><stop offset="1" stop-color="#FF7044"/></linearGradient><linearGradient id="paint22_linear" x1="56.535" y1="52.313" x2="51.603" y2="30.403" gradientUnits="userSpaceOnUse"><stop stop-color="#FFDA45"/><stop offset="1" stop-color="#FCB37E"/></linearGradient><linearGradient id="paint23_linear" x1="42.58" y1="33.574" x2="45.52" y2="46.284" gradientUnits="userSpaceOnUse"><stop stop-color="#FFDA45"/><stop offset="1" stop-color="#FCB37E"/></linearGradient><linearGradient id="paint24_linear" x1="55.1" y1="33.403" x2="36.889" y2="26.194" gradientUnits="userSpaceOnUse"><stop stop-color="#FCB37E" stop-opacity="0"/><stop offset="1" stop-color="#FF7044"/></linearGradient><linearGradient id="paint25_linear" x1="47.194" y1="27.425" x2="56.584" y2="43.455" gradientUnits="userSpaceOnUse"><stop stop-color="#FCB37E" stop-opacity="0"/><stop offset="1" stop-color="#FF7044"/></linearGradient><linearGradient id="paint26_linear" x1="58.842" y1="33.483" x2="41.39" y2="48.944" gradientUnits="userSpaceOnUse"><stop stop-color="#FCB37E" stop-opacity="0"/><stop offset="1" stop-color="#FF7044"/></linearGradient><linearGradient id="paint27_linear" x1="55.706" y1="39.766" x2="61.777" y2="22.314" gradientUnits="userSpaceOnUse"><stop stop-color="#FCB37E" stop-opacity="0"/><stop offset="1" stop-color="#FF7044"/></linearGradient><linearGradient id="paint28_linear" x1="50.356" y1="38.684" x2="44.458" y2="30.164" gradientUnits="userSpaceOnUse"><stop stop-color="#FFDA45" stop-opacity="0"/><stop offset="1" stop-color="#FFEE83"/></linearGradient><linearGradient id="paint29_linear" x1="48.927" y1="36.956" x2="37.439" y2="21.021" gradientUnits="userSpaceOnUse"><stop stop-color="#FFDA45" stop-opacity="0"/><stop offset="1" stop-color="#FCEE21"/></linearGradient><clipPath id="clip0"><path fill="#fff" transform="translate(19 19)" d="M0 0h62v62H0z"/></clipPath></defs></svg>