<svg width="100" height="100" fill="none" xmlns="http://www.w3.org/2000/svg"><rect opacity=".1" width="100" height="100" rx="30" fill="#2C6D97"/><g clip-path="url(#clip0)"><path d="M69.194 44.437c0-10.782-8.891-19.488-19.742-19.185-10.307.287-18.595 8.78-18.644 19.092a19.128 19.128 0 005.443 13.484c3.116 3.198 4.89 7.465 4.89 11.93v1.469h17.72v-1.47c0-4.443 1.736-8.713 4.846-11.885a19.128 19.128 0 005.487-13.435z" fill="url(#paint0_radial)"/><path d="M50 62.392c9.916 0 17.955-8.038 17.955-17.955 0-9.916-8.038-17.955-17.955-17.955-9.916 0-17.955 8.04-17.955 17.955 0 9.917 8.039 17.955 17.955 17.955z" fill="url(#paint1_linear)"/><path d="M50 40.488c6.431 0 11.646-3.03 11.646-6.77 0-3.738-5.215-6.769-11.647-6.769s-11.646 3.031-11.646 6.77c0 3.739 5.214 6.77 11.646 6.77z" fill="url(#paint2_linear)"/><path d="M58.586 27.268a19.112 19.112 0 012.024 8.586c0 10.6-8.593 19.194-19.193 19.194-3.087 0-6.002-.73-8.586-2.025 3.151 6.29 9.656 10.608 17.17 10.608 10.6 0 19.193-8.593 19.193-19.193 0-7.514-4.319-14.018-10.608-17.17z" fill="url(#paint3_linear)"/><path d="M50 66.423c6.431 0 11.646-5.214 11.646-11.646S56.43 43.13 49.999 43.13s-11.646 5.215-11.646 11.647 5.214 11.646 11.646 11.646z" fill="url(#paint4_radial)"/><path d="M56.988 79.415a16.195 16.195 0 01-13.975 0 3.305 3.305 0 01-1.879-2.981v-9.579h17.733v9.579c0 1.272-.73 2.432-1.879 2.981z" fill="url(#paint5_linear)"/><path d="M41.134 68.918l1.758 1.758h15.975v-1.773H41.134v.015z" fill="url(#paint6_linear)"/><path d="M41.134 73.287l1.758 1.758h15.975v-1.773H41.134v.015z" fill="url(#paint7_linear)"/><path d="M41.291 77.439c.03.093.064.184.102.274l1.498 1.499H57.35a3.303 3.303 0 001.358-1.773H41.291z" fill="url(#paint8_linear)"/><path d="M54.994 54.777h-.36a2.59 2.59 0 00-2.588 2.588v.833h-4.093v-.833a2.591 2.591 0 00-2.588-2.588h-.36a2.59 2.59 0 00-2.589 2.588 2.59 2.59 0 002.589 2.588h1.193v6.695h1.755v-6.695h4.093v6.695h1.755v-6.695h1.193a2.591 2.591 0 002.589-2.588 2.591 2.591 0 00-2.589-2.588zm-8.796 3.421h-1.193a.835.835 0 010-1.667h.36c.46 0 .833.374.833.834v.833zm8.796 0h-1.193v-.833c0-.46.374-.834.833-.834h.36a.834.834 0 010 1.667z" fill="url(#paint9_linear)"/><path d="M54.994 54.777h-.36a2.59 2.59 0 00-2.588 2.588v.833h-4.093v-.833a2.591 2.591 0 00-2.588-2.588h-.36a2.59 2.59 0 00-2.589 2.588 2.59 2.59 0 002.589 2.588h1.193v6.695h1.755v-6.695h4.093v6.695h1.755v-6.695h1.193a2.591 2.591 0 002.589-2.588 2.591 2.591 0 00-2.589-2.588zm-8.796 3.421h-1.193a.835.835 0 010-1.667h.36c.46 0 .833.374.833.834v.833zm8.796 0h-1.193v-.833c0-.46.374-.834.833-.834h.36a.834.834 0 010 1.667z" fill="url(#paint10_linear)"/><path d="M58.383 68.987H41.619a1.52 1.52 0 010-3.04h16.764a1.52 1.52 0 110 3.04z" fill="url(#paint11_linear)"/><path d="M58.383 73.36H41.619a1.52 1.52 0 110-3.04h16.764a1.52 1.52 0 110 3.04z" fill="url(#paint12_linear)"/><path d="M58.383 77.733H41.619a1.52 1.52 0 010-3.041h16.764a1.52 1.52 0 110 3.04z" fill="url(#paint13_linear)"/><path d="M55.773 79.935c-1.613-.547-3.61-.871-5.773-.871s-4.16.324-5.773.871a16.194 16.194 0 0011.546 0z" fill="url(#paint14_linear)"/><path d="M28.13 45.859h-2.545a1.222 1.222 0 110-2.445h2.545a1.222 1.222 0 010 2.445z" fill="url(#paint15_linear)"/><path d="M74.413 45.859H71.87a1.222 1.222 0 010-2.445h2.544a1.222 1.222 0 010 2.445z" fill="url(#paint16_linear)"/><path d="M51.222 22.767v-2.545a1.222 1.222 0 10-2.444 0v2.545a1.222 1.222 0 002.444 0z" fill="url(#paint17_linear)"/><path d="M33.671 30.037l-1.8-1.8a1.222 1.222 0 011.73-1.728l1.799 1.8a1.222 1.222 0 01-1.729 1.728z" fill="url(#paint18_linear)"/><path d="M66.328 30.037l1.8-1.8a1.222 1.222 0 10-1.73-1.728l-1.799 1.8a1.222 1.222 0 001.729 1.728z" fill="url(#paint19_linear)"/></g><defs><linearGradient id="paint12_linear" x1="49.955" y1="70.759" x2="50.068" y2="73.418" gradientUnits="userSpaceOnUse"><stop stop-color="#7E8595"/><stop offset="1" stop-color="#555A66"/></linearGradient><linearGradient id="paint11_linear" x1="49.955" y1="66.387" x2="50.068" y2="69.046" gradientUnits="userSpaceOnUse"><stop stop-color="#F9F7FC"/><stop offset="1" stop-color="#F0DDFC"/></linearGradient><linearGradient id="paint3_linear" x1="50.667" y1="51.793" x2="77.049" y2="2.726" gradientUnits="userSpaceOnUse"><stop stop-color="#FFDA45" stop-opacity="0"/><stop offset="1" stop-color="#B53759"/></linearGradient><linearGradient id="paint5_linear" x1="41.134" y1="73.928" x2="58.867" y2="73.928" gradientUnits="userSpaceOnUse"><stop stop-color="#7E8595"/><stop offset="1" stop-color="#555A66"/></linearGradient><linearGradient id="paint6_linear" x1="49.986" y1="70.56" x2="50.025" y2="68.454" gradientUnits="userSpaceOnUse"><stop stop-color="#555A66" stop-opacity="0"/><stop offset="1" stop-color="#555A66"/></linearGradient><linearGradient id="paint7_linear" x1="49.986" y1="74.929" x2="50.025" y2="72.824" gradientUnits="userSpaceOnUse"><stop stop-color="#555A66" stop-opacity="0"/><stop offset="1" stop-color="#555A66"/></linearGradient><linearGradient id="paint8_linear" x1="49.969" y1="79.095" x2="50.008" y2="76.993" gradientUnits="userSpaceOnUse"><stop stop-color="#555A66" stop-opacity="0"/><stop offset="1" stop-color="#555A66"/></linearGradient><linearGradient id="paint9_linear" x1="49.999" y1="59.085" x2="49.999" y2="52.92" gradientUnits="userSpaceOnUse"><stop stop-color="#FFDA45" stop-opacity="0"/><stop offset="1" stop-color="#FCEE21"/></linearGradient><linearGradient id="paint1_linear" x1="52.143" y1="46.581" x2="32.674" y2="27.111" gradientUnits="userSpaceOnUse"><stop stop-color="#FFDA45" stop-opacity="0"/><stop offset="1" stop-color="#FCEE21"/></linearGradient><linearGradient id="paint2_linear" x1="51.269" y1="39.096" x2="47.779" y2="24.312" gradientUnits="userSpaceOnUse"><stop stop-color="#FFDA45" stop-opacity="0"/><stop offset="1" stop-color="#fff"/></linearGradient><linearGradient id="paint10_linear" x1="49.999" y1="60.332" x2="49.999" y2="67.663" gradientUnits="userSpaceOnUse"><stop stop-color="#FFDA45" stop-opacity="0"/><stop offset="1" stop-color="#B53759"/></linearGradient><linearGradient id="paint13_linear" x1="49.955" y1="75.132" x2="50.068" y2="77.791" gradientUnits="userSpaceOnUse"><stop stop-color="#7E8595"/><stop offset="1" stop-color="#555A66"/></linearGradient><linearGradient id="paint14_linear" x1="49.917" y1="79.338" x2="50.385" y2="82.73" gradientUnits="userSpaceOnUse"><stop stop-color="#F9F7FC"/><stop offset="1" stop-color="#F0DDFC"/></linearGradient><linearGradient id="paint15_linear" x1="26.857" y1="44.352" x2="26.857" y2="46.867" gradientUnits="userSpaceOnUse"><stop stop-color="#92F37F"/><stop offset="1" stop-color="#4AB272"/></linearGradient><linearGradient id="paint16_linear" x1="73.141" y1="44.352" x2="73.141" y2="46.867" gradientUnits="userSpaceOnUse"><stop stop-color="#92F37F"/><stop offset="1" stop-color="#4AB272"/></linearGradient><linearGradient id="paint17_linear" x1="49.716" y1="21.495" x2="52.231" y2="21.495" gradientUnits="userSpaceOnUse"><stop stop-color="#92F37F"/><stop offset="1" stop-color="#4AB272"/></linearGradient><linearGradient id="paint18_linear" x1="33.838" y1="28.068" x2="32.06" y2="29.846" gradientUnits="userSpaceOnUse"><stop stop-color="#92F37F"/><stop offset="1" stop-color="#4AB272"/></linearGradient><linearGradient id="paint19_linear" x1="66.161" y1="28.068" x2="67.939" y2="29.846" gradientUnits="userSpaceOnUse"><stop stop-color="#92F37F"/><stop offset="1" stop-color="#4AB272"/></linearGradient><radialGradient id="paint4_radial" cx="0" cy="0" r="1" gradientUnits="userSpaceOnUse" gradientTransform="translate(50 54.777) scale(11.6464)"><stop stop-color="#FCEE21" stop-opacity=".6"/><stop offset=".326" stop-color="#FDEA28" stop-opacity=".404"/><stop offset=".786" stop-color="#FEE03A" stop-opacity=".128"/><stop offset="1" stop-color="#FFDA45" stop-opacity="0"/></radialGradient><radialGradient id="paint0_radial" cx="0" cy="0" r="1" gradientUnits="userSpaceOnUse" gradientTransform="translate(43.589 37.202) scale(30.3697)"><stop stop-color="#FFDA45"/><stop offset=".304" stop-color="#FFCE3E"/><stop offset=".856" stop-color="#FFAE2B"/><stop offset="1" stop-color="#FFA425"/></radialGradient><clipPath id="clip0"><path fill="#fff" transform="translate(19 19)" d="M0 0h62v62H0z"/></clipPath></defs></svg>